<svg xmlns="http://www.w3.org/2000/svg" viewBox="0 0 400 300" width="406" height="306" class="illustration styles_illustrationTablet__1DWOa"><g id="_349_product_manager_outline" data-name="#349_product_manager_outline"><path d="M277.39,211.92c.84,1.42,2.32,3.21,2.68,4.81.68,3-1.23,6.67-1,10.08a2.8,2.8,0,0,0,.48,1.64,2,2,0,0,0,2.63.08,4.79,4.79,0,0,0,1.45-2.46c.67-2.12,1.1-4.56,2.9-5.85,4.39-3.15,12.52-.67,16.93,1.19,1.2.5,2.55,1.08,3.74.58a2.87,2.87,0,0,0,1.59-2.41,5.23,5.23,0,0,0-.75-2.9c-1.85-3.34-6.18-5.23-9.57-6.65-2.85-1.2-7.91-2.09-9.7-4.87C287.69,205.81,277.39,211.92,277.39,211.92Z" fill="#ffc9b0"></path><path d="M280.78,230a2.59,2.59,0,0,1-2-.89,3.69,3.69,0,0,1-.71-2.22,18.92,18.92,0,0,1,.62-5,12,12,0,0,0,.44-4.9,11.23,11.23,0,0,0-1.71-3.19c-.31-.47-.61-.91-.86-1.33a1.06,1.06,0,0,1-.12-.7c.09-.44.09-.44,2.86-2.09,3.07-1.82,8.22-4.89,8.94-5.33a1,1,0,0,1,1.37.31c1.13,1.76,4,2.71,6.61,3.55,1,.31,1.86.61,2.64.94,3.18,1.33,8,3.35,10.05,7.08a6.15,6.15,0,0,1,.88,3.47,3.84,3.84,0,0,1-2.2,3.25c-1.56.66-3.16,0-4.45-.56-2.69-1.13-11.61-4.49-16-1.32-1.24.88-1.71,2.53-2.22,4.27-.1.36-.2.72-.31,1.07a5.88,5.88,0,0,1-1.8,2.95A3.32,3.32,0,0,1,280.78,230Zm-2-17.72.26.38a12.53,12.53,0,0,1,2,3.87,13.73,13.73,0,0,1-.43,5.77,16.74,16.74,0,0,0-.58,4.47,1.93,1.93,0,0,0,.25,1.06c.22.27.85.23,1.25-.07a4,4,0,0,0,1.11-2l.3-1c.55-1.9,1.18-4.06,3-5.34,5.11-3.67,14.22-.47,17.9,1.07,1.1.47,2.17.92,3,.59a1.85,1.85,0,0,0,1-1.58,4.15,4.15,0,0,0-.63-2.33c-1.73-3.12-6.15-5-9.07-6.21-.71-.29-1.57-.58-2.49-.88-2.55-.83-5.4-1.76-7.07-3.59l-8.21,4.88Z" fill="#093f68"></path><path d="M230.26,188.47S253.11,190.08,258,195c7,6.94,19.15,20.86,19.15,20.86l13.94-9.38s-15.53-26.87-23.41-31.64-42.76-12.7-42.76-12.7Z" fill="#68e1fd"></path><path d="M277.16,216.82a1,1,0,0,1-.75-.34c-.13-.14-12.22-14-19.1-20.81-3.81-3.79-20.87-5.76-27.12-6.21a1,1,0,0,1-.91-.79L224,162.29a1,1,0,0,1,.28-.91,1,1,0,0,1,.92-.26c1.43.33,35.12,8,43.06,12.82s23.11,30.89,23.75,32a1,1,0,0,1-.31,1.33l-13.93,9.38A1,1,0,0,1,277.16,216.82Zm-46.07-29.29c4.11.33,23,2.1,27.63,6.72,6.06,6,16.1,17.39,18.61,20.25l12.43-8.36c-2.65-4.5-15.77-26.36-22.59-30.48S233,165,226.22,163.42Z" fill="#093f68"></path><path d="M270.26,142.3s6.66-8.64,7.72-10.92c2.31-4.93,4.38-9.82,6.93-14.65.71-1.33,2-2.9,3.38-2.34s1.28,2.44,1,3.86c-.26,1.23-.53,2.45-.79,3.68,5.28-2.07,13-.55,18.52,0,2.48.25,5.54,1,6.29,3.55.65,2.27-.56,8.6-13.75,8.38-2.68-.05-6.13,1-7.87,3.32s-3.55,5-5.31,7.44c-2.16,3-4.15,6.18-6.25,9.27Z" fill="#ffc9b0"></path><path d="M280.1,154.89a1,1,0,0,1-.76-.36L269.49,143a1,1,0,0,1,0-1.26c1.84-2.38,6.78-8.95,7.62-10.74q1-2.19,2-4.38c1.54-3.39,3.13-6.89,4.94-10.31,1.27-2.4,3-3.44,4.63-2.8s2.13,2.44,1.58,5l-.43,2c4.31-1.09,9.53-.45,14.2.12,1.08.13,2.11.26,3.08.36,1.51.15,6.09.6,7.15,4.27A6.11,6.11,0,0,1,313,130.5c-1.58,2.06-5.22,4.5-13.5,4.36-2.33-.05-5.48.86-7.07,2.93-1.19,1.56-2.37,3.26-3.52,4.9-.59.85-1.17,1.69-1.76,2.51-1.34,1.87-2.63,3.83-3.89,5.72-.78,1.18-1.56,2.36-2.35,3.53a1,1,0,0,1-.78.43Zm-8.56-12.62,8.47,10,1.61-2.41c1.26-1.91,2.56-3.88,3.92-5.78.58-.82,1.17-1.65,1.75-2.49,1.16-1.66,2.36-3.38,3.57-5,2-2.63,5.79-3.75,8.69-3.71,7.45.12,10.58-1.88,11.88-3.58a4.23,4.23,0,0,0,.89-3.52c-.46-1.59-2.23-2.52-5.43-2.83-1-.1-2-.23-3.12-.36-5.07-.62-10.81-1.32-14.94.29a1,1,0,0,1-1-.17,1,1,0,0,1-.33-1l.8-3.68c.23-1.09.28-2.46-.37-2.72s-1.55.79-2.13,1.88c-1.78,3.36-3.35,6.84-4.88,10.2q-1,2.19-2,4.4C278,133.8,273.12,140.2,271.54,142.27Z" fill="#093f68"></path><rect x="83.7" y="216.13" width="41.84" height="29.07" transform="translate(152.78 -18) rotate(35.36)" fill="#fff"></rect><path d="M113.27,255.63a1,1,0,0,1-.58-.19L78.57,231.23a1,1,0,0,1-.24-1.4l16.82-23.7a1,1,0,0,1,1.4-.24l34.12,24.21a1,1,0,0,1,.24,1.4l-16.82,23.71A1,1,0,0,1,113.27,255.63ZM80.54,230.18l32.5,23,15.66-22.07L96.21,208.1Z" fill="#093f68"></path><path d="M126.14,211.92s-3,5.07-3.19,6,2,5.49.46,7L119,221.68s-4.87,11.36-8.44,9.86-7.55-7.23-7.18-10,11.35-16.33,11.35-16.33Z" fill="#ffc9b0"></path><path d="M111.25,232.67a2.53,2.53,0,0,1-1-.21c-3.94-1.66-8.23-7.77-7.79-11.1.4-2.94,9.7-14.53,11.57-16.82a1,1,0,0,1,1.28-.23l11.37,6.75a1,1,0,0,1,.35,1.37,53.67,53.67,0,0,0-3.08,5.7c0,.14.2.85.34,1.37.54,2,1.28,4.71-.14,6.13a1,1,0,0,1-1.3.1l-3.38-2.5C118,226.23,114.65,232.67,111.25,232.67Zm3.75-26.2c-4.43,5.52-10.36,13.48-10.58,15.16-.3,2.24,3.32,7.62,6.57,9,1.74.73,5.25-5,7.13-9.33a1,1,0,0,1,.65-.57,1,1,0,0,1,.86.16l3.32,2.46a13.86,13.86,0,0,0-.62-3.32,5.67,5.67,0,0,1-.37-2.29,35.83,35.83,0,0,1,2.81-5.46Z" fill="#093f68"></path><path d="M173.27,188.47s-22.85,1.61-27.75,6.49c-7,6.94-19.15,20.86-19.15,20.86l-13.94-9.38S128,179.57,135.84,174.8s42.76-12.7,42.76-12.7Z" fill="#68e1fd"></path><path d="M126.37,216.82a1,1,0,0,1-.56-.17l-13.93-9.38a1,1,0,0,1-.31-1.33c.64-1.11,15.74-27.15,23.76-32s41.62-12.49,43-12.82a1,1,0,0,1,.92.26,1,1,0,0,1,.28.91l-5.33,26.38a1,1,0,0,1-.91.79c-6.25.45-23.31,2.42-27.12,6.21-6.88,6.84-19,20.67-19.1,20.81A1,1,0,0,1,126.37,216.82Zm-12.6-10.68,12.43,8.36c2.51-2.86,12.55-14.23,18.61-20.25,4.65-4.62,23.52-6.39,27.63-6.72l4.87-24.11c-6.76,1.58-34.22,8.16-40.95,12.24S116.42,201.64,113.77,206.14Zm59.5-17.67h0Z" fill="#093f68"></path><path d="M130.34,139.7s-5.44-9.46-6.19-11.87-2.82-13.42-5.44-13.26-16.71-1.87-16.33,5,3.75,10.77,6.19,11.9,10.09,17.67,10.47,18.42Z" fill="#ffc9b0"></path><path d="M119,150.86l-.19,0a1,1,0,0,1-.71-.54l-.28-.59c-7.4-15.62-9.39-17.2-9.71-17.36-3.1-1.43-6.4-5.93-6.77-12.76a4.61,4.61,0,0,1,1.33-3.64c2.9-2.93,9.76-2.62,13.86-2.43.9,0,1.68.08,2.08.06h.12c2.65,0,4.18,5.33,5.76,11.77.23.94.44,1.75.57,2.2.59,1.88,4.61,9,6.11,11.66a1,1,0,0,1-.2,1.24L119.7,150.6A1,1,0,0,1,119,150.86Zm-6.22-35.44c-3.27,0-7.09.32-8.69,1.94a2.65,2.65,0,0,0-.76,2.12c.38,6.87,3.84,10.23,5.62,11,.69.32,2.5,1.16,10.37,17.69l9.72-8.73c-1.29-2.26-5.22-9.25-5.88-11.36-.16-.5-.36-1.3-.61-2.32-2-8.24-3.21-10.11-3.84-10.24-.48,0-1.27,0-2.27,0S114.21,115.42,112.82,115.42Z" fill="#093f68"></path><path d="M291.09,140.45s-15.52,26.88-23.41,31.64c-5.44,3.3-23.77,8.1-34.58,10.76v46.87H173.26V183.55c-10.09-2.44-31.46-7.85-37.42-11.46-7.89-4.76-23.41-31.64-23.41-31.64l13.94-9.38s12.15,13.92,19.14,20.87c4.91,4.87,27.75,6.49,27.75,6.49h57s22.84-1.62,27.75-6.49c7-6.95,19.14-20.87,19.14-20.87Z" fill="#68e1fd"></path><path d="M233.1,230.72H173.26a1,1,0,0,1-1-1V184.34c-11.66-2.84-31.18-7.91-36.93-11.39-8-4.84-23.12-30.89-23.76-32a1,1,0,0,1,.31-1.33l13.94-9.38a1,1,0,0,1,1.31.18c.12.13,12.2,14,19.09,20.81,3.81,3.78,20.86,5.76,27.11,6.21h56.93c6.18-.44,23.24-2.42,27.05-6.2,6.88-6.84,19-20.68,19.09-20.81a1,1,0,0,1,1.31-.18l13.94,9.38A1,1,0,0,1,292,141c-.64,1.11-15.74,27.16-23.76,32-5.16,3.13-21.22,7.5-34.1,10.69v46.08A1,1,0,0,1,233.1,230.72Zm-58.84-2H232.1V182.85a1,1,0,0,1,.76-1c18.18-4.47,30.36-8.25,34.31-10.64,6.83-4.12,19.94-26,22.59-30.48l-12.43-8.37c-2.51,2.86-12.55,14.23-18.61,20.26-5.12,5.08-27.44,6.71-28.39,6.78H173.26c-1-.07-23.34-1.7-28.45-6.78-6.06-6-16.1-17.4-18.61-20.26l-12.43,8.37c2.65,4.49,15.76,26.36,22.59,30.48,5.65,3.42,25.7,8.57,37.14,11.34a1,1,0,0,1,.76,1Z" fill="#093f68"></path><rect x="193.21" y="159.65" width="19.95" height="58.77" fill="#fff"></rect><path d="M213.16,219.42H193.21a1,1,0,0,1-1-1V159.65a1,1,0,0,1,1-1h19.95a1,1,0,0,1,1,1v58.77A1,1,0,0,1,213.16,219.42Zm-18.95-2h17.95V160.65H194.21Z" fill="#093f68"></path><path d="M213.16,159.65V178.5a27.13,27.13,0,0,1-19.95,0V159.65Z" fill="#ffc9b0"></path><path d="M203.18,181.4a27.75,27.75,0,0,1-10.34-2,1,1,0,0,1-.63-.93V159.65a1,1,0,0,1,1-1h19.95a1,1,0,0,1,1,1V178.5a1,1,0,0,1-.63.93A27.8,27.8,0,0,1,203.18,181.4Zm-9-3.59a26.24,26.24,0,0,0,17.95,0V160.65H194.21Z" fill="#093f68"></path><path d="M175.91,168.12a19.29,19.29,0,0,0-5.72,14.21A25.06,25.06,0,0,0,175.91,198" fill="#68e1fd"></path><path d="M175.91,199a1,1,0,0,1-.74-.33,25.84,25.84,0,0,1-6-16.3c0-9.7,5.82-14.76,6.07-15a1,1,0,1,1,1.3,1.52h0a18.46,18.46,0,0,0-5.37,13.45,24.24,24.24,0,0,0,5.46,15,1,1,0,0,1-.07,1.41A1,1,0,0,1,175.91,199Z" fill="#093f68"></path><path d="M229.85,168.12a19.29,19.29,0,0,1,5.72,14.21A25.06,25.06,0,0,1,229.85,198" fill="#68e1fd"></path><path d="M229.85,199a1,1,0,0,1-.67-.26,1,1,0,0,1-.07-1.41,24.24,24.24,0,0,0,5.46-15,18.46,18.46,0,0,0-5.37-13.45,1,1,0,0,1,1.3-1.52c.25.21,6.07,5.27,6.07,15a25.9,25.9,0,0,1-6,16.3A1,1,0,0,1,229.85,199Z" fill="#093f68"></path><path d="M159,102.44l-.12-.91c-.61-4.63-.36-10.31,3.68-12.65.78-.46,1.65-.74,2.39-1.26,3.72-2.62,1.69-8.37,2.28-12.88,1.42-11,16.41-18.34,26.27-15.53a13.88,13.88,0,0,0,4.45.93c1.91-.09,3.59-1.23,5.37-1.93a12.78,12.78,0,0,1,13.79,3.15c1.07,1.17,2,2.58,3.35,3.34,2.84,1.54,6.57-.19,9.49,1.18,4.81,2.27,3.38,10.46,7.81,13.4,1.73,1.15,4.25,1.41,5.13,3.29.5,1.07.27,2.32.48,3.48.49,2.74,3.2,4.38,5.16,6.35,5.95,6,2.88,13.09,2.38,20.37-.16,2.24-.25,4.6.79,6.59a21.32,21.32,0,0,0,2.72,3.44c6.43,7.81,3.38,21.06-5.09,26.05a17.06,17.06,0,0,1-14.82,1.09c-3.86,5.73-11.55,7.23-17.91,8.2-9.67,1.47-19.94,2.88-28.92-1-2.44-1.05-4.72-2.47-7.25-3.29-6.17-2-11.51,2.25-17.14-1.17-4.17-2.54-8.29-7.92-7.46-13.07a16.62,16.62,0,0,0,.62-4.39c-.25-2.26-2.05-4-3.27-5.9C146.39,118.62,160.28,112.35,159,102.44Z" fill="#725858"></path><path d="M201.4,160.65a35.37,35.37,0,0,1-14.12-2.58c-1-.41-1.91-.89-2.83-1.35a32.22,32.22,0,0,0-4.34-1.91c-2.57-.84-5-.5-7.53-.13-3.16.45-6.44.92-9.82-1.14-4.61-2.81-8.82-8.54-7.93-14.08.08-.47.18-.93.29-1.4a8.49,8.49,0,0,0,.32-2.72,8.55,8.55,0,0,0-2-3.86c-.39-.52-.78-1-1.13-1.61-4.23-6.68-1.08-11.74,2-16.64,2.17-3.49,4.21-6.79,3.71-10.66l-.12-.91C157,94.84,158.41,90.12,162,88c.35-.2.72-.37,1.09-.55a9,9,0,0,0,1.24-.66c2.1-1.48,2-4.43,1.81-7.55a26.59,26.59,0,0,1,0-4.64C166.85,69.77,170,65.28,175,62c5.84-3.84,13.2-5.29,18.76-3.71l.91.27a6.84,6.84,0,0,0,6.66-.52c.53-.26,1.06-.51,1.6-.72a13.69,13.69,0,0,1,14.89,3.41c.3.32.59.66.87,1a8.38,8.38,0,0,0,2.23,2.12,8.3,8.3,0,0,0,4.32.53,10.58,10.58,0,0,1,5.12.63c2.9,1.37,3.8,4.42,4.67,7.37.73,2.51,1.43,4.89,3.26,6.1a11.73,11.73,0,0,0,1.81.89c1.38.57,2.94,1.23,3.68,2.81a6.34,6.34,0,0,1,.46,2.54,8.85,8.85,0,0,0,.09,1.19c.31,1.72,1.76,3,3.3,4.35.54.47,1.09,1,1.59,1.46,5,5,4.09,10.74,3.26,16.31-.24,1.59-.48,3.23-.6,4.84-.15,2.22-.21,4.35.68,6a11.64,11.64,0,0,0,1.74,2.27l.88,1a17.57,17.57,0,0,1,3.35,14.31,19.17,19.17,0,0,1-8.72,13.23,18.2,18.2,0,0,1-15,1.44c-4.12,5.43-11.49,7-18.12,8A102.58,102.58,0,0,1,201.4,160.65Zm-24.74-8.36a12.92,12.92,0,0,1,4.07.62,33.12,33.12,0,0,1,4.62,2c.88.44,1.8.9,2.72,1.29,9,3.87,19.73,2.24,28.37.92,6.46-1,13.66-2.47,17.23-7.77a1,1,0,0,1,1.2-.37,16.08,16.08,0,0,0,13.94-1,17.18,17.18,0,0,0,7.77-11.85,15.61,15.61,0,0,0-2.94-12.69c-.26-.32-.54-.63-.82-.94a13.26,13.26,0,0,1-2-2.68c-1.14-2.17-1.07-4.6-.9-7.12.12-1.69.37-3.37.61-5,.83-5.55,1.55-10.34-2.7-14.61-.46-.46-1-.9-1.49-1.37-1.73-1.52-3.52-3.09-3.95-5.5a10.91,10.91,0,0,1-.12-1.47A4.72,4.72,0,0,0,242,83c-.41-.89-1.45-1.32-2.64-1.82a12.9,12.9,0,0,1-2.14-1.06c-2.44-1.62-3.28-4.46-4.08-7.2s-1.52-5.15-3.61-6.13a8.85,8.85,0,0,0-4.18-.44,10,10,0,0,1-5.36-.77A9.9,9.9,0,0,1,217.16,63c-.26-.31-.52-.63-.8-.93a11.81,11.81,0,0,0-12.68-2.9c-.5.19-1,.43-1.48.66a8.67,8.67,0,0,1-8.11.63l-.87-.26c-5-1.43-11.74-.07-17.11,3.46-4.54,3-7.35,7-7.9,11.24a25.49,25.49,0,0,0,0,4.29c.16,3.52.34,7.16-2.66,9.27a9.75,9.75,0,0,1-1.54.84c-.31.15-.63.3-.93.47-3.63,2.11-3.74,7.5-3.19,11.65l.13.92h0c.59,4.58-1.74,8.34-4,12-3,4.77-5.53,8.89-2,14.51.31.49.67,1,1,1.49a7.93,7.93,0,0,1,2,8.21c-.1.43-.19.85-.26,1.28-.75,4.61,3,9.65,7,12.05,2.77,1.69,5.43,1.31,8.5.87A31,31,0,0,1,176.66,152.29Z" fill="#093f68"></path><path d="M197.26,162V151.94h11.85V162" fill="#ffc9b0"></path><path d="M209.11,163a1,1,0,0,1-1-1v-9.09h-9.85V162a1,1,0,0,1-2,0V151.94a1,1,0,0,1,1-1h11.85a1,1,0,0,1,1,1V162A1,1,0,0,1,209.11,163Z" fill="#093f68"></path><ellipse cx="169.32" cy="121.16" rx="11.51" ry="9.92" fill="#ffc9b0"></ellipse><path d="M169.32,132.08c-6.9,0-12.52-4.9-12.52-10.92s5.62-10.93,12.52-10.93,12.51,4.9,12.51,10.93S176.22,132.08,169.32,132.08Zm0-19.85c-5.8,0-10.52,4-10.52,8.93s4.72,8.92,10.52,8.92,10.51-4,10.51-8.92S175.11,112.23,169.32,112.23Z" fill="#093f68"></path><ellipse cx="236.44" cy="121.16" rx="11.51" ry="9.92" fill="#ffc9b0"></ellipse><path d="M236.44,132.08c-6.9,0-12.51-4.9-12.51-10.92s5.61-10.93,12.51-10.93S249,115.13,249,121.16,243.34,132.08,236.44,132.08Zm0-19.85c-5.79,0-10.51,4-10.51,8.93s4.72,8.92,10.51,8.92,10.52-4,10.52-8.92S242.24,112.23,236.44,112.23Z" fill="#093f68"></path><path d="M224,95a7.61,7.61,0,0,1-3.58-1.12c-2.34-1.55-3.21-4.74-5.59-6.24-3.24-2-7.59-.09-11.27-1.16s-5.72-4.68-7.47-8A6.23,6.23,0,0,1,191,86.16a10.35,10.35,0,0,0-2.31.26c-2.38.78-2.63,3.94-3.56,6.26a8.39,8.39,0,0,1-6.87,5.12,14.18,14.18,0,0,0-3.4.36,6.28,6.28,0,0,0-2.68,2.17c-4.16,5.33-3.69,12.06-3.69,18.44a34.73,34.73,0,0,0,69.45,0c0-8.88,3.11-22.51-9.28-23.62C227.1,95,225.49,95.1,224,95Z" fill="#ffc9b0"></path><path d="M203.19,154.49a35.76,35.76,0,0,1-35.73-35.72c0-.59,0-1.18,0-1.77,0-6-.08-12.17,3.91-17.28a7.24,7.24,0,0,1,3.13-2.5,8.32,8.32,0,0,1,2.62-.36c.35,0,.69,0,1,0a7.37,7.37,0,0,0,6-4.5,17.94,17.94,0,0,0,.58-1.75c.62-2,1.31-4.34,3.59-5.09a6.46,6.46,0,0,1,1.83-.26l.7,0a5.24,5.24,0,0,0,4.23-6.43,1,1,0,0,1,1.83-.77c1.74,3.3,3.7,6.59,6.87,7.51a14,14,0,0,0,4.65.22c2.34-.13,4.76-.28,6.87,1.06a11.26,11.26,0,0,1,3.14,3.43A9.92,9.92,0,0,0,220.94,93a6.53,6.53,0,0,0,3.11.95h0c.74.07,1.5.09,2.31.1s1.58,0,2.36.1c11.35,1,10.8,11.57,10.36,20-.09,1.62-.17,3.15-.17,4.56A35.76,35.76,0,0,1,203.19,154.49ZM197,82.07a7.94,7.94,0,0,1-.91,1.91,6.89,6.89,0,0,1-5,3.18c-.27,0-.54,0-.82,0a5,5,0,0,0-1.28.16c-1.29.42-1.78,2-2.3,3.77-.19.64-.39,1.3-.64,1.91a9.44,9.44,0,0,1-7.71,5.75c-.38,0-.77,0-1.15.06a7,7,0,0,0-2,.24,5.2,5.2,0,0,0-2.22,1.85c-3.57,4.56-3.53,10.39-3.49,16,0,.59,0,1.19,0,1.78a33.73,33.73,0,0,0,67.45,0c0-1.46.08-3,.17-4.66.44-8.41.89-17.12-8.54-18-.71-.06-1.44-.08-2.22-.09s-1.64,0-2.46-.11h0a8.42,8.42,0,0,1-4-1.28,11.59,11.59,0,0,1-3-3.35,9.67,9.67,0,0,0-2.55-2.87c-1.58-1-3.58-.88-5.69-.75a15.7,15.7,0,0,1-5.33-.3C200.46,86.59,198.54,84.51,197,82.07Z" fill="#093f68"></path><circle cx="187.11" cy="113.71" r="3.22" fill="#093f68"></circle><circle cx="220.27" cy="113.71" r="3.22" fill="#093f68"></circle><path d="M203,125.52a19.35,19.35,0,0,1-3.13-.26,1,1,0,0,1-.81-1.15,1,1,0,0,1,1.16-.82,14.67,14.67,0,0,0,4.76,0c.21-.92-1-4.37-2.7-7.6a1,1,0,0,1,1.77-.93c1.13,2.16,3.65,7.4,2.73,9.45a1.71,1.71,0,0,1-1.17,1A10.81,10.81,0,0,1,203,125.52Z" fill="#093f68"></path><path d="M193.68,104.29h0l-15.34,0a1.59,1.59,0,0,1,0-3.18h0l15.33,0a1.59,1.59,0,1,1,0,3.17Z" fill="#093f68"></path><path d="M215.54,104.67a1.59,1.59,0,0,1-.08-3.17l15.31-.79a1.59,1.59,0,1,1,.16,3.17l-15.31.79Z" fill="#093f68"></path><path d="M193.68,131.08H211a0,0,0,0,1,0,0v5.17a8.66,8.66,0,0,1-8.66,8.66h0a8.66,8.66,0,0,1-8.66-8.66v-5.17A0,0,0,0,1,193.68,131.08Z" fill="#093f68"></path><path d="M202.34,145.9a9.66,9.66,0,0,1-9.66-9.65v-5.17a1,1,0,0,1,1-1H211a1,1,0,0,1,1,1v5.17A9.66,9.66,0,0,1,202.34,145.9Zm-7.66-13.82v4.17a7.66,7.66,0,0,0,15.31,0v-4.17Z" fill="#093f68"></path><path d="M112.47,108.61h0a3.15,3.15,0,0,1,3.15,3.15v17.8a0,0,0,0,1,0,0h-6.3a0,0,0,0,1,0,0v-17.8a3.15,3.15,0,0,1,3.15-3.15Z" transform="translate(192.25 262.15) rotate(-165.78)" fill="#ffbc0e"></path><path d="M110.68,130.34a4.61,4.61,0,0,1-1-.13,4.16,4.16,0,0,1-3-5L111,107.91a1,1,0,0,1,.46-.61,1,1,0,0,1,.76-.11l6.1,1.55a1,1,0,0,1,.73,1.21L114.7,127.2a4.17,4.17,0,0,1-4,3.14Zm2-21-4.12,16.28a2.15,2.15,0,0,0,1.56,2.61,2.16,2.16,0,0,0,2.61-1.56l4.12-16.28Z" fill="#093f68"></path><path d="M77.61,120.32l43.87-8.26a8,8,0,0,0,6.74-7l0-.59a7.94,7.94,0,0,0-5.67-7.9L80.36,82.1Z" fill="#ffbc0e"></path><path d="M77.61,121.32a1,1,0,0,1-.67-.25,1,1,0,0,1-.33-.82L79.36,82a1,1,0,0,1,.44-.76,1,1,0,0,1,.88-.11l42.24,14.45a9,9,0,0,1,6.34,8.92l0,.59a9,9,0,0,1-7.55,7.92L77.79,121.3Zm3.65-37.85L78.7,119.1l42.59-8a7,7,0,0,0,5.93-6.1l0-.6a7,7,0,0,0-5-6.88Z" fill="#093f68"></path><rect x="72.89" y="78.94" width="6.1" height="44.11" rx="2.89" transform="translate(144.44 207.17) rotate(-175.89)" fill="#ffbc0e"></rect><path d="M74.73,124h-.29l-.31,0h0a3.9,3.9,0,0,1-3.6-4.17l2.75-38.22A3.89,3.89,0,0,1,77.44,78l.31,0a3.89,3.89,0,0,1,3.6,4.16L78.6,120.39A3.88,3.88,0,0,1,74.73,124Zm-.46-2,.32,0a1.84,1.84,0,0,0,1.37-.45,1.9,1.9,0,0,0,.65-1.3L79.36,82a1.93,1.93,0,0,0-.46-1.38A1.9,1.9,0,0,0,77.61,80l-.32,0a1.91,1.91,0,0,0-2,1.76L72.52,120a1.89,1.89,0,0,0,1.75,2Z" fill="#093f68"></path><path d="M118.76,116.45a12.79,12.79,0,0,0-11.51,1.62,1.21,1.21,0,0,0-.52.6c-.14.5.35,1,.81,1.2,2,1.1,4.5,1.1,6.84,1.07-1,1.09-.56,2.9.23,4.18a11.73,11.73,0,0,0,4.43,4.16" fill="#ffc9b0"></path><path d="M119,130.28a1,1,0,0,1-.47-.12,12.61,12.61,0,0,1-4.8-4.51,5.81,5.81,0,0,1-.93-3.7,12.59,12.59,0,0,1-5.77-1.2,2.09,2.09,0,0,1-1.29-2.35,2.16,2.16,0,0,1,.9-1.14,13.76,13.76,0,0,1,12.43-1.76,1,1,0,1,1-.67,1.89,11.75,11.75,0,0,0-10.59,1.49l.17.11c1.88,1,4.26,1,6.36,1a1,1,0,0,1,.73,1.7c-.61.64-.25,2,.36,3a10.74,10.74,0,0,0,4.05,3.81,1,1,0,0,1-.48,1.88Z" fill="#093f68"></path><path d="M291.76,131.49a1,1,0,0,1-.85-1.53c2.18-3.47-3-7.18-3-7.21a1,1,0,0,1,1.15-1.64c2.35,1.66,6.11,5.86,3.57,9.91A1,1,0,0,1,291.76,131.49Z" fill="#093f68"></path><g id="ahcQ9Z"><path d="M322.46,96a2.27,2.27,0,0,0-1.76-2.12c-.85-.19-1.71-.32-2.57-.46a.55.55,0,0,1-.51-.42c-.26-.68-.54-1.36-.84-2a.44.44,0,0,1,0-.51c.52-.71,1.05-1.42,1.53-2.16a2.25,2.25,0,0,0-.2-2.75c-.79-.87-1.63-1.68-2.45-2.51a2.42,2.42,0,0,0-3.29-.3c-.65.45-1.29.91-1.92,1.37a.45.45,0,0,1-.52,0c-.72-.32-1.46-.62-2.2-.9a.47.47,0,0,1-.34-.4c-.12-.79-.25-1.58-.39-2.36a2.37,2.37,0,0,0-2.27-2q-1.81,0-3.63,0a2.3,2.3,0,0,0-2.2,1.8c-.2.88-.33,1.77-.48,2.66a.45.45,0,0,1-.33.4c-.71.28-1.41.58-2.11.9a.44.44,0,0,1-.49,0c-.7-.52-1.4-1-2.12-1.52a2.25,2.25,0,0,0-2.78.18c-.93.84-1.82,1.72-2.68,2.64a2.33,2.33,0,0,0-.15,3.1c.47.68,1,1.34,1.43,2a.45.45,0,0,1,0,.36c-.29.76-.6,1.52-.92,2.27a.46.46,0,0,1-.28.23c-.79.15-1.57.28-2.36.4a2.39,2.39,0,0,0-2.11,2.22c0,1.26,0,2.52,0,3.79a2.28,2.28,0,0,0,1.75,2.11c.9.2,1.81.33,2.72.49a.42.42,0,0,1,.38.31c.29.72.59,1.43.91,2.14a.41.41,0,0,1,0,.46c-.48.65-1,1.3-1.42,2a2.38,2.38,0,0,0,.28,3.19c.76.78,1.52,1.55,2.3,2.3a2.38,2.38,0,0,0,3.26.25c.66-.46,1.33-.93,2-1.4a.38.38,0,0,1,.43,0c.67.29,1.34.58,2,.83a.53.53,0,0,1,.37.48c.12.78.25,1.55.39,2.33a2.34,2.34,0,0,0,2.17,2c1.27,0,2.55,0,3.82,0a2.29,2.29,0,0,0,2.12-1.78c.18-.86.32-1.73.46-2.6a.5.5,0,0,1,.36-.45c.71-.27,1.42-.57,2.11-.88a.42.42,0,0,1,.46,0l2,1.41a2.53,2.53,0,0,0,1.59.48,2,2,0,0,0,1.41-.57c.83-.79,1.64-1.61,2.45-2.42a2.42,2.42,0,0,0,.3-3.34c-.45-.64-.9-1.28-1.37-1.92a.41.41,0,0,1,0-.46c.31-.71.61-1.42.88-2.14a.48.48,0,0,1,.41-.33l2.36-.38a2.38,2.38,0,0,0,2.06-2.26C322.49,98.49,322.49,97.25,322.46,96ZM303,106.28a8.39,8.39,0,1,1,8.41-8.38A8.39,8.39,0,0,1,303,106.28Z" fill="#f56132" stroke="#093f68" stroke-linecap="round" stroke-linejoin="round" stroke-width="2"></path></g><path d="M111.73,244.93a1,1,0,0,1-.58-.19,1,1,0,0,1-.23-1.39l10.13-14.21a1,1,0,1,1,1.63,1.16l-10.14,14.21A1,1,0,0,1,111.73,244.93Z" fill="#dfeaef"></path><circle cx="296.58" cy="230.52" r="15.4" fill="#70cc40"></circle><path d="M296.58,246.92a16.4,16.4,0,1,1,16.4-16.4A16.42,16.42,0,0,1,296.58,246.92Zm0-30.8a14.4,14.4,0,1,0,14.4,14.4A14.43,14.43,0,0,0,296.58,216.12Z" fill="#093f68"></path><circle cx="296.58" cy="230.52" r="10.89" fill="#fff"></circle><path d="M296.58,242.41a11.89,11.89,0,1,1,11.89-11.89A11.9,11.9,0,0,1,296.58,242.41Zm0-21.78a9.89,9.89,0,1,0,9.89,9.89A9.89,9.89,0,0,0,296.58,220.63Z" fill="#093f68"></path><path d="M302.37,231.52h-5.79a1,1,0,0,1-.78-.38l-3.72-4.68a1,1,0,0,1,1.57-1.25l3.41,4.31h5.31a1,1,0,0,1,0,2Z" fill="#dfeaef"></path><rect x="173.26" y="218.42" width="59.84" height="25.42" fill="#093f68"></rect><path d="M233.1,244.85H173.26a1,1,0,0,1-1-1V218.42a1,1,0,0,1,1-1H233.1a1,1,0,0,1,1,1v25.43A1,1,0,0,1,233.1,244.85Zm-58.84-2H232.1V219.42H174.26Z" fill="#093f68"></path></g></svg>